<?xml version="1.0" encoding="UTF-8" standalone="no"?>
<svg
   width="900"
   height="439"
   viewBox="0 0 900 439"
   fill="none"
   version="1.1"
   id="svg10"
   sodipodi:docname="sad-face.svg"
   inkscape:version="1.2.1 (9c6d41e410, 2022-07-14)"
   xmlns:inkscape="http://www.inkscape.org/namespaces/inkscape"
   xmlns:sodipodi="http://sodipodi.sourceforge.net/DTD/sodipodi-0.dtd"
   xmlns="http://www.w3.org/2000/svg"
   xmlns:svg="http://www.w3.org/2000/svg">
  <defs
     id="defs14" />
  <sodipodi:namedview
     id="namedview12"
     pagecolor="#ffffff"
     bordercolor="#000000"
     borderopacity="0.25"
     inkscape:showpageshadow="2"
     inkscape:pageopacity="0.0"
     inkscape:pagecheckerboard="0"
     inkscape:deskcolor="#d1d1d1"
     showgrid="false"
     inkscape:zoom="0.53758542"
     inkscape:cx="478.06356"
     inkscape:cy="219.5"
     inkscape:window-width="1920"
     inkscape:window-height="1170"
     inkscape:window-x="0"
     inkscape:window-y="0"
     inkscape:window-maximized="1"
     inkscape:current-layer="svg10" />
  <path
     d="m 221.295,134.085 c 0,-14.5055 5.195,-26.9529 15.584,-37.3421 10.389,-10.3892 22.837,-15.5838 37.343,-15.5838 14.505,0 26.953,5.1946 37.342,15.5838 10.389,10.3892 15.584,22.8366 15.584,37.3421 0,14.506 -5.195,26.953 -15.584,37.343 -10.389,10.389 -22.837,15.583 -37.342,15.583 -9.606,0 -18.427,-2.45 -26.463,-7.35 -8.037,-4.705 -14.506,-11.076 -19.407,-19.113 -4.704,-7.841 -7.057,-16.662 -7.057,-26.463 z m 335.199,0 c 0,-14.5055 5.195,-26.9529 15.584,-37.3421 10.389,-10.3892 22.837,-15.5838 37.342,-15.5838 14.506,0 26.954,5.1946 37.343,15.5838 10.389,10.3892 15.584,22.8366 15.584,37.3421 0,14.506 -5.195,26.953 -15.584,37.343 -10.389,10.389 -22.837,15.583 -37.343,15.583 -9.605,0 -18.426,-2.45 -26.463,-7.35 -8.037,-4.705 -14.505,-11.076 -19.406,-19.113 -4.704,-7.841 -7.057,-16.662 -7.057,-26.463 z"
     fill="#000000"
     fill-opacity="0.1"
     id="path2" />
  <path
     d="m 454.045,247.21 c 74.097,0 142.215,9.605 204.354,28.816 62.335,19.406 119.672,47.045 172.01,82.917 v 61.159 c -19.406,-14.113 -43.321,-27.345 -71.744,-39.694 -28.227,-12.154 -59.297,-22.837 -93.209,-32.05 -33.716,-9.213 -68.608,-16.466 -104.676,-21.759 -36.068,-5.096 -71.646,-7.644 -106.735,-7.644 -46.653,0 -93.992,4.508 -142.018,13.525 -48.026,9.017 -92.621,21.171 -133.786,36.46 -41.164,15.29 -74.684,32.344 -100.5592,51.162 V 358.943 C 130.02,323.071 187.259,295.432 249.398,276.026 311.733,256.815 379.949,247.21 454.045,247.21 Z"
     fill="#000000"
     fill-opacity="0.1"
     id="path4" />
  <path
     d="M 133,58.5 C 235.4,73.7 299.333,48.5 318.5,34"
     stroke="#000000"
     stroke-opacity="0.1"
     stroke-width="25"
     id="path6" />
  <path
     d="M 739,58.3236 C 636.324,73.4142 572.218,48.3956 553,34"
     stroke="#000000"
     stroke-opacity="0.1"
     stroke-width="25"
     id="path8" />
</svg>
